# xmcd
#
# Track frame offsets:
#	150
#	15885
#	30415
#	47402
#	54330
#	68095
#	82410
#	99262
#	113232
#	124782
#	137017
#	150585
#	165502
#	180017
#	190715
#	195127
#	217215
#	231415
#	244492
#	256445
#	272307
#
# Disc length: 3801 seconds
#
# Revision: 0
# Processed by: cddbd v1.5.1PL0 Copyright (c) Steve Scherf et al.
# Submitted via: dBpowerAMP V4.0
#
DISCID=0b0ed715
DTITLE=Mouloudji - Un jour tu verras 1952-76 CD1
DYEAR=2004
DGENRE=Chanson française
TTITLE0=Un jour tu verras
TTITLE1=Si tu t'imagines
TTITLE2=Comme un p'tit coquelicot
TTITLE3=Qu'est-ce que tu crois
TTITLE4=Cinématographe
TTITLE5=J'suis snob
TTITLE6=Valse jaune
TTITLE7=Le déserteur
TTITLE8=On m'a dit
TTITLE9=La complainte de la butte
TTITLE10=Mon Pote le gitan
TTITLE11=On m'a donné une âme
TTITLE12=La complainte des infidèles
TTITLE13=La complainte de mackie
TTITLE14=Chanson très bête
TTITLE15=Le joueur de Monte-Carlo
TTITLE16=Les petits pavés
TTITLE17=Les petites fleurs
TTITLE18=Moi, j'aime les femmes fatales
TTITLE19=Dis quand reviendras-tu
TTITLE20=Le Galérien
EXTD=
EXTT0=
EXTT1=
EXTT2=
EXTT3=
EXTT4=
EXTT5=
EXTT6=
EXTT7=
EXTT8=
EXTT9=
EXTT10=
EXTT11=
EXTT12=
EXTT13=
EXTT14=
EXTT15=
EXTT16=
EXTT17=
EXTT18=
EXTT19=
EXTT20=
PLAYORDER=
